<?xml version="1.0" encoding="UTF-8"?><svg id="FinalEgg_clean_W_B_scaledH110" xmlns="http://www.w3.org/2000/svg" xmlns:xlink="http://www.w3.org/1999/xlink" viewBox="0 0 2585.27 2614.4"><defs><style>.cls-1{fill:#fff;}.cls-2{clip-path:url(#clippath);}</style><clipPath id="clippath"><path d="M1659.53,1605.27l.21,2.95c0-162.35-92.95-285.48-131.16-327.6h0c-20.03-24.58-52.13-40.43-88.39-40.43-30.4,0-57.9,11.19-77.8,29.29l.76-.79c-.35,.35-.73,.74-1.13,1.14-3.67,3.37-7.08,6.98-10.19,10.79-35.7,38.6-131.59,173-131.59,339.57,0,110.55,98.38,200,219.95,200s219.95-89.45,219.95-200c0-5.02-.21-10-.61-14.92Z"/></clipPath></defs><path d="M1659.53,1605.27l.21,2.95c0-162.35-92.95-285.48-131.16-327.6h0c-20.03-24.58-52.13-40.43-88.39-40.43-30.4,0-57.9,11.19-77.8,29.29l.76-.79c-.35,.35-.73,.74-1.13,1.14-3.67,3.37-7.08,6.98-10.19,10.79-35.7,38.6-131.59,173-131.59,339.57,0,110.55,98.38,200,219.95,200s219.95-89.45,219.95-200c0-5.02-.21-10-.61-14.92Z"/><g class="cls-2"><g id="BottomLine"><path d="M1646.72,1461.49c-87.42,123.38-230.6,239.17-376.88,303.53"/><path class="cls-1" d="M1656.19,1468.2c-99.61,130.58-235.48,232.97-386.36,296.82,110.14-52.17,209.34-126.83,292.18-215.88,27.39-29.68,52.78-61.13,75.23-94.37l18.95,13.42h0Z"/></g><g id="MiddleLine"><path d="M1593.21,1349.56c-83.05,133.93-223.16,257.94-372.97,329.78"/><path class="cls-1" d="M1603.11,1355.7c-93.89,140.88-229.56,252.97-382.86,323.65,111.71-57.24,211.09-138.19,291.33-234.42,26.53-32.04,50.75-65.9,71.76-101.49l19.78,12.27h0Z"/></g><g id="UpperLine"><path d="M1523.29,1260.55c-69.08,118.05-189.09,237.87-311.07,311.4"/><path class="cls-1" d="M1535.74,1267.84c-81.18,125.47-194.25,229.89-323.52,304.11,31.07-20.18,60.61-42.52,88.73-66.41,56-47.7,106.81-101.63,150.72-160.47,21.83-29.36,41.85-59.97,59.16-91.8l24.91,14.57h0Z"/></g></g></svg>